<svg width="24" height="24" viewBox="0 0 24 24" fill="none" xmlns="http://www.w3.org/2000/svg">
<path d="M8.99995 13V13C7.51622 13 6.31617 12.4892 5.99995 12C5.68373 11.5109 6.39735 11.363 6.99995 10L8.99995 6.00001C9.54784 4.76078 9.4685 3.3472 9.99995 3.00001C10.5314 2.65282 10.6509 3.00001 12 3.00001H15C16.6388 3.00001 16.691 3.46466 17 4.00001C17.3091 4.53536 16.8131 4.56966 16 6.00001L15 8.00001C14.5958 8.71108 14.9972 8.70898 15 9.00001C15.0037 9.37824 14.6751 9.80921 15 10C15.25 10.1469 16.1853 11 17 11C18.0299 11 18.7318 10.8217 19 11C19.3484 11.2316 19.0639 11.585 19 12C18.9508 12.3194 18.6928 12.2339 18 13L12 19C10.9128 20.2022 10.365 21.1902 9.99995 21C9.63491 20.8097 10.6494 19.586 11 18V15C11.2669 13.7924 11.321 13.4023 11 13C10.679 12.5977 10.2306 13 8.99995 13Z" stroke="white" stroke-width="1.5" stroke-linejoin="round"/>
</svg>
